<svg width="15" height="15" viewBox="0 0 15 15" fill="none" xmlns="http://www.w3.org/2000/svg">
<path fill-rule="evenodd" clip-rule="evenodd" d="M11.7819 4.03202C11.8353 3.97864 11.8778 3.91525 11.9067 3.84548C11.9357 3.77571 11.9506 3.70092 11.9506 3.62538C11.9507 3.54984 11.9358 3.47503 11.907 3.40522C11.8781 3.33541 11.8358 3.27197 11.7824 3.21852C11.729 3.16508 11.6656 3.12267 11.5959 3.09371C11.5261 3.06476 11.4513 3.04984 11.3758 3.04979C11.3002 3.04975 11.2254 3.06458 11.1556 3.09344C11.0858 3.12231 11.0223 3.16464 10.9689 3.21802L7.4999 6.68702L4.0319 3.21802C3.92396 3.11008 3.77756 3.04944 3.6249 3.04944C3.47225 3.04944 3.32584 3.11008 3.2179 3.21802C3.10996 3.32597 3.04932 3.47237 3.04932 3.62502C3.04932 3.77768 3.10996 3.92408 3.2179 4.03202L6.6869 7.50002L3.2179 10.968C3.16445 11.0215 3.12206 11.0849 3.09313 11.1548C3.0642 11.2246 3.04932 11.2994 3.04932 11.375C3.04932 11.4506 3.0642 11.5255 3.09313 11.5953C3.12206 11.6651 3.16445 11.7286 3.2179 11.782C3.32584 11.89 3.47225 11.9506 3.6249 11.9506C3.70049 11.9506 3.77533 11.9357 3.84517 11.9068C3.915 11.8779 3.97845 11.8355 4.0319 11.782L7.4999 8.31302L10.9689 11.782C11.0768 11.8898 11.2232 11.9503 11.3758 11.9503C11.5283 11.9502 11.6746 11.8895 11.7824 11.7815C11.8902 11.6736 11.9507 11.5272 11.9506 11.3747C11.9505 11.2221 11.8898 11.0758 11.7819 10.968L8.3129 7.50002L11.7819 4.03202Z" fill="black"/>
</svg>
