<svg width="12" height="12" viewBox="0 0 12 12" fill="none" xmlns="http://www.w3.org/2000/svg">
<path fill-rule="evenodd" clip-rule="evenodd" d="M9.42552 3.22564C9.46828 3.18294 9.50221 3.13223 9.52537 3.07641C9.54853 3.02059 9.56047 2.96076 9.56051 2.90033C9.56054 2.83989 9.54868 2.78005 9.52558 2.7242C9.50249 2.66835 9.46863 2.6176 9.42592 2.57484C9.38322 2.53208 9.33251 2.49816 9.27669 2.475C9.22087 2.45184 9.16104 2.4399 9.1006 2.43986C9.04017 2.43982 8.98032 2.45169 8.92448 2.47478C8.86863 2.49787 8.81788 2.53174 8.77512 2.57444L5.99992 5.34964L3.22552 2.57444C3.13917 2.48809 3.02204 2.43958 2.89992 2.43958C2.7778 2.43958 2.66068 2.48809 2.57432 2.57444C2.48797 2.6608 2.43945 2.77792 2.43945 2.90004C2.43945 3.02217 2.48797 3.13929 2.57432 3.22564L5.34952 6.00004L2.57432 8.77444C2.53156 8.8172 2.49764 8.86796 2.4745 8.92383C2.45136 8.9797 2.43945 9.03957 2.43945 9.10004C2.43945 9.16051 2.45136 9.22039 2.4745 9.27626C2.49764 9.33212 2.53156 9.38288 2.57432 9.42564C2.66068 9.512 2.7778 9.56051 2.89992 9.56051C2.96039 9.56051 3.02027 9.5486 3.07613 9.52546C3.132 9.50232 3.18276 9.4684 3.22552 9.42564L5.99992 6.65044L8.77512 9.42564C8.86147 9.51189 8.97856 9.5603 9.1006 9.56023C9.22265 9.56015 9.33967 9.5116 9.42592 9.42524C9.51217 9.33889 9.56058 9.22181 9.56051 9.09976C9.56043 8.97771 9.51187 8.86069 9.42552 8.77444L6.65032 6.00004L9.42552 3.22564Z" fill="white"/>
</svg>
