<svg width="15" height="15" viewBox="0 0 15 15" fill="none" xmlns="http://www.w3.org/2000/svg">
<path d="M7.5 6.75005C7.74723 6.75005 7.9889 6.67674 8.19446 6.53939C8.40002 6.40204 8.56024 6.20682 8.65485 5.97841C8.74946 5.75 8.77421 5.49867 8.72598 5.25619C8.67775 5.01372 8.5587 4.79099 8.38388 4.61617C8.20907 4.44136 7.98634 4.3223 7.74386 4.27407C7.50139 4.22584 7.25005 4.2506 7.02165 4.34521C6.79324 4.43982 6.59801 4.60003 6.46066 4.80559C6.32331 5.01115 6.25 5.25283 6.25 5.50005C6.25 5.83158 6.3817 6.14952 6.61612 6.38394C6.85054 6.61836 7.16848 6.75005 7.5 6.75005ZM7.05625 11.0688C7.11435 11.1274 7.18348 11.1739 7.25964 11.2056C7.3358 11.2373 7.41749 11.2537 7.5 11.2537C7.58251 11.2537 7.6642 11.2373 7.74036 11.2056C7.81652 11.1739 7.88565 11.1274 7.94375 11.0688L10.5 8.5063C11.0937 7.91289 11.4981 7.15673 11.662 6.33347C11.826 5.5102 11.7421 4.65681 11.4209 3.88124C11.0998 3.10566 10.5559 2.44275 9.85793 1.97634C9.16 1.50993 8.33943 1.26099 7.5 1.26099C6.66057 1.26099 5.84 1.50993 5.14207 1.97634C4.44414 2.44275 3.90021 3.10566 3.57907 3.88124C3.25794 4.65681 3.17403 5.5102 3.33795 6.33347C3.50188 7.15673 3.90628 7.91289 4.5 8.5063L7.05625 11.0688ZM4.51875 5.21255C4.56145 4.76694 4.70314 4.33649 4.93345 3.95263C5.16377 3.56876 5.47691 3.24118 5.85 2.9938C6.34013 2.67199 6.91366 2.50053 7.5 2.50053C8.08634 2.50053 8.65987 2.67199 9.15 2.9938C9.5206 3.24034 9.83197 3.56593 10.0617 3.94717C10.2914 4.32841 10.4338 4.75582 10.4787 5.19867C10.5235 5.64152 10.4696 6.0888 10.3209 6.50834C10.1722 6.92788 9.93244 7.30926 9.61875 7.62505L7.5 9.7438L5.38125 7.62505C5.0672 7.31233 4.82683 6.93351 4.67763 6.51618C4.52843 6.09885 4.47415 5.6535 4.51875 5.21255ZM11.875 12.5001H3.125C2.95924 12.5001 2.80027 12.5659 2.68306 12.6831C2.56585 12.8003 2.5 12.9593 2.5 13.1251C2.5 13.2908 2.56585 13.4498 2.68306 13.567C2.80027 13.6842 2.95924 13.7501 3.125 13.7501H11.875C12.0408 13.7501 12.1997 13.6842 12.3169 13.567C12.4342 13.4498 12.5 13.2908 12.5 13.1251C12.5 12.9593 12.4342 12.8003 12.3169 12.6831C12.1997 12.5659 12.0408 12.5001 11.875 12.5001Z" fill="black"/>
</svg>
