<svg width="15" height="15" viewBox="0 0 15 15" fill="none" xmlns="http://www.w3.org/2000/svg">
<path d="M7.5 3.75C7.33424 3.75 7.17527 3.81585 7.05806 3.93306C6.94085 4.05027 6.875 4.20924 6.875 4.375V7.115L5.35625 7.87938C5.28035 7.91465 5.21231 7.96481 5.15616 8.02688C5.10001 8.08895 5.05691 8.16167 5.0294 8.24072C5.00188 8.31976 4.99053 8.40353 4.99601 8.48705C5.00148 8.57057 5.02368 8.65213 5.06128 8.72691C5.09887 8.80169 5.15111 8.86815 5.21488 8.92236C5.27865 8.97657 5.35266 9.01741 5.43252 9.04248C5.51238 9.06754 5.59645 9.07631 5.67976 9.06826C5.76307 9.06021 5.84392 9.03551 5.9175 8.99562L7.78063 8.05812C7.88415 8.00619 7.97118 7.92648 8.03199 7.82792C8.09281 7.72935 8.12501 7.61582 8.125 7.5V4.375C8.125 4.20924 8.05915 4.05027 7.94194 3.93306C7.82473 3.81585 7.66576 3.75 7.5 3.75ZM7.5 1.25C6.26387 1.25 5.0555 1.61656 4.02769 2.30331C2.99988 2.99007 2.1988 3.96619 1.72576 5.10823C1.25271 6.25027 1.12894 7.50693 1.37009 8.71931C1.61125 9.9317 2.20651 11.0453 3.08059 11.9194C3.95466 12.7935 5.06831 13.3888 6.28069 13.6299C7.49307 13.8711 8.74974 13.7473 9.89177 13.2742C11.0338 12.8012 12.0099 12.0001 12.6967 10.9723C13.3834 9.94451 13.75 8.73613 13.75 7.5C13.7482 5.84296 13.0891 4.2543 11.9174 3.08259C10.7457 1.91088 9.15705 1.25182 7.5 1.25ZM7.5 12.5C6.5111 12.5 5.5444 12.2068 4.72215 11.6573C3.89991 11.1079 3.25904 10.327 2.88061 9.41342C2.50217 8.49979 2.40315 7.49445 2.59608 6.52455C2.789 5.55464 3.26521 4.66373 3.96447 3.96447C4.66373 3.2652 5.55465 2.789 6.52455 2.59607C7.49446 2.40315 8.49979 2.50216 9.41342 2.8806C10.327 3.25904 11.1079 3.8999 11.6573 4.72215C12.2068 5.54439 12.5 6.51109 12.5 7.5C12.4983 8.82557 11.971 10.0964 11.0337 11.0337C10.0964 11.971 8.82558 12.4983 7.5 12.5Z" fill="black"/>
</svg>
